<svg xmlns="http://www.w3.org/2000/svg" xmlns:xlink="http://www.w3.org/1999/xlink" width="1366" height="769.734" viewBox="0 0 1366 769.734">
  <defs>
    <clipPath id="clip-path">
      <path id="Path_23264" data-name="Path 23264" d="M1366,0H0V769.734H1366Z" fill="#fff"/>
    </clipPath>
    <linearGradient id="linear-gradient" x1="0.965" y1="0.417" x2="-0.29" y2="1.097" gradientUnits="objectBoundingBox">
      <stop offset="0" stop-color="#4abeee"/>
      <stop offset="1" stop-color="#255f77"/>
    </linearGradient>
    <linearGradient id="linear-gradient-2" x1="0.022" y1="0.9" x2="0.352" y2="0.569" gradientUnits="objectBoundingBox">
      <stop offset="0" stop-color="#4ec0f0"/>
      <stop offset="0.246" stop-color="#24abdc"/>
      <stop offset="1" stop-color="#2a7ab0"/>
    </linearGradient>
    <clipPath id="clip-path-2">
      <rect id="Rectangle_3621" data-name="Rectangle 3621" width="1373" height="161.778" fill="#f2f5f7"/>
    </clipPath>
  </defs>
  <g id="Mask_Group_79" data-name="Mask Group 79" clip-path="url(#clip-path)">
    <g id="Group_12264" data-name="Group 12264" transform="translate(-73 -908.201)">
      <g id="Group_12263" data-name="Group 12263" transform="translate(0 900.392)">
        <g id="Group_12262" data-name="Group 12262" transform="translate(0 437.171)" opacity="0.531">
          <path id="Path_23226" data-name="Path 23226" d="M-13105.223,1815.3c-92.452,15.051-91.711,54.8-306.832,0s-235.864,72.57-427.506,14.838,312.922-173.969,312.922-173.969l421.416,34.773V1815.3" transform="translate(14544.223 -1548.207)" fill="url(#linear-gradient)"/>
          <ellipse id="Ellipse_231" data-name="Ellipse 231" cx="111" cy="50.856" rx="111" ry="50.856" transform="translate(0 193.725)" fill="#3382a3"/>
          <g id="Group_12261" data-name="Group 12261" transform="translate(773.714 0) rotate(20)" opacity="0.854">
            <path id="Path_23227" data-name="Path 23227" d="M-.19,2.445c.825.563,1.366.951,1.925,1.312Q127.753,85.2,253.752,166.666a4.208,4.208,0,0,0,4.035.572c2.025-.707,4.092-1.294,6.463-2.032-.881-.613-1.461-1.039-2.067-1.431Q135.823,82.114,9.485.424A3.722,3.722,0,0,0,5.151.1C3.525.979,1.755,1.605-.19,2.445Z" transform="translate(54.627 59.494)" fill="#2980b5"/>
            <path id="Path_23228" data-name="Path 23228" d="M-.193,2.48a15.418,15.418,0,0,1,2.239.99q126.123,81.476,252.2,163.019a3.98,3.98,0,0,0,4.677.272c1.515-.847,3.156-1.477,4.743-2.2l.45-.856a11.563,11.563,0,0,1-2.463-.886Q136.113,81.738,10.633.581a4.7,4.7,0,0,0-4.749-.71C4.014.6,2.039,1.07.109,1.654Z" transform="translate(67.3 55.058)" fill="#2980b5"/>
            <path id="Path_23229" data-name="Path 23229" d="M-.122,1.566c1,.686,1.585,1.114,2.2,1.51Q126.816,83.691,251.525,164.348c1.933,1.251,3.386,1.564,5.293.029a47.647,47.647,0,0,0,4.073-3.058,9.6,9.6,0,0,1-2.1-.743Q134.878,80.544,11.017.441A4.652,4.652,0,0,0,6.45-.192C4.485.514,2.41.906-.122,1.566Z" transform="translate(81.362 51.327)" fill="#2980b5"/>
            <path id="Path_23230" data-name="Path 23230" d="M260.351,163.262c-.591-.408-1.169-.831-1.772-1.221Q133.489,81.2,8.419.328A3.077,3.077,0,0,0,4.528.24C3.088,1.2,1.533,1.987-.233,3c.84.576,1.476,1.032,2.137,1.459Q125.2,84.143,248.54,163.777a6.827,6.827,0,0,0,3.793.882c2.635-.125,5.266-.6,7.9-.93Z" transform="translate(43.532 64.941)" fill="#2980b5"/>
            <path id="Path_23231" data-name="Path 23231" d="M256.282,158.637a18.4,18.4,0,0,1-2.523-1.07Q132.226,79.059,10.741.491A4.616,4.616,0,0,0,5.98-.094C4.119.664,2.119,1.083-.135,1.743c.745.54,1.244.94,1.783,1.286Q124.86,82.663,248.057,162.323c1.461.946,2.458.975,3.759-.2C252.995,161.055,254.327,160.148,256.282,158.637Z" transform="translate(95.894 47.274)" fill="#2980b5"/>
            <path id="Path_23232" data-name="Path 23232" d="M-.142,1.824,245.142,160.334l4.957-4.511c-.583-.421-1.029-.778-1.508-1.088Q129.05,77.483,9.525.212A3.361,3.361,0,0,0,6.1-.189C4.089.593,1.991,1.15-.142,1.824Z" transform="translate(110.228 42.915)" fill="#2980b5"/>
            <path id="Path_23233" data-name="Path 23233" d="M252.785,158.553c-.529-.373-1.045-.764-1.588-1.116Q129.612,78.859,8.047.26C6.765-.571,5.873-.72,4.628.344,3.319,1.461,1.832,2.386-.3,3.915a14.673,14.673,0,0,1,2.538.952Q119.329,80.5,236.428,156.124a13.042,13.042,0,0,0,5.073,1.869c3.673.531,7.416.7,11.133,1.009Z" transform="translate(33.038 71.202)" fill="#2980b5"/>
            <path id="Path_23234" data-name="Path 23234" d="M239.614,156.753l4.285-4.629c-.713-.485-1.3-.9-1.91-1.3Q125.6,75.61,9.22.365a3.683,3.683,0,0,0-3.8-.488C3.48.671,1.457,1.27-.141,1.817Z" transform="translate(124.258 38.414)" fill="#2980b5"/>
            <path id="Path_23235" data-name="Path 23235" d="M-.159,2.052q117.169,75.714,234.1,151.28l4.548-5.777a11.332,11.332,0,0,1-2.351-.819Q122.853,73.572,9.62.34A3.723,3.723,0,0,0,5.645-.079C3.808.733,1.868,1.32-.159,2.052Z" transform="translate(137.111 33.793)" fill="#2980b5"/>
            <path id="Path_23236" data-name="Path 23236" d="M-.158,2.036,227.428,149.107l3.606-5.355c-.73-.5-1.32-.919-1.93-1.313Q119.193,71.406,9.3.345A3.821,3.821,0,0,0,5.116.026C3.364.847,1.49,1.42-.158,2.036Z" transform="translate(150.474 28.999)" fill="#2980b5"/>
            <path id="Path_23237" data-name="Path 23237" d="M-.3,3.916c.686.474,1.218.863,1.774,1.221Q108.943,74.593,216.438,144.019A10.436,10.436,0,0,0,220,145.4c5,.991,10.029,1.86,15.545,2.863-.834-.612-1.292-.987-1.788-1.306Q120.324,73.649,6.916.309C5.462-.631,4.576-.566,3.4.636,2.294,1.767,1.023,2.753-.3,3.916Z" transform="translate(24.659 78.206)" fill="#2980b5"/>
            <path id="Path_23238" data-name="Path 23238" d="M-.165,2.122,220.577,144.771c.939-1.653,2.035-3.578,3.2-5.631-.653-.459-1.226-.892-1.83-1.282Q115.523,69.074,9.114.269a3.456,3.456,0,0,0-3.8-.284C3.54.814,1.662,1.423-.165,2.122Z" transform="translate(163.329 24.059)" fill="#2980b5"/>
            <path id="Path_23239" data-name="Path 23239" d="M213,139.878c.8-1.672,1.733-3.622,2.742-5.73-.655-.453-1.233-.878-1.837-1.267Q111.405,66.638,8.923.366A3.671,3.671,0,0,0,4.958-.014C3.182.81,1.342,1.5-.165,2.127Z" transform="translate(176.321 19.02)" fill="#2980b5"/>
            <path id="Path_23240" data-name="Path 23240" d="M214.9,135.864,4.228-.277-.348,4.486c.616.439,1.117.83,1.654,1.177q98.605,63.73,197.232,127.428a8.189,8.189,0,0,0,3.2,1.155C206.11,134.859,210.5,135.335,214.9,135.864Z" transform="translate(16.715 85.644)" fill="#2980b5"/>
            <path id="Path_23241" data-name="Path 23241" d="M205.149,134.913l2.544-6.564a12.02,12.02,0,0,1-2.049-.856Q107.211,63.917,8.826.28A3.342,3.342,0,0,0,5.041.037C3.311.9,1.464,1.552-.173,2.228Z" transform="translate(188.777 13.885)" fill="#2980b5"/>
            <path id="Path_23242" data-name="Path 23242" d="M196.51,129.319c-.143.182-.024.088.02-.032,2.246-6.036,2.246-6.036-3.125-9.507Q101.032,60.085,8.682.362A3.389,3.389,0,0,0,4.731.095C3.077.987,1.269,1.606-.172,2.218Z" transform="translate(201.391 8.652)" fill="#2980b5"/>
            <path id="Path_23243" data-name="Path 23243" d="M197.354,124.905,3.694-.242C2.487,1.281,1.092,3.041-.381,4.9.315,5.378.9,5.8,1.5,6.186q90.439,58.45,180.912,116.851a9.554,9.554,0,0,0,4.174,1.265C190.231,124.636,193.911,124.728,197.354,124.905Z" transform="translate(9.65 93.897)" fill="#2980b5"/>
            <path id="Path_23244" data-name="Path 23244" d="M-.189,2.436,187.745,123.883c.475-2.19.977-4.372,1.391-6.566.054-.289-.267-.7-.532-.942a10.212,10.212,0,0,0-1.343-.9Q98.216,57.929,9.194.351A3.546,3.546,0,0,0,5.05.108C3.4,1.007,1.612,1.65-.189,2.436Z" transform="translate(213.204 3.411)" fill="#2980b5"/>
            <path id="Path_23245" data-name="Path 23245" d="M3.059-.2-.4,5.166c.686.477,1.264.9,1.867,1.295Q85.157,60.55,168.876,114.6a6.647,6.647,0,0,0,3.407.944c3.172,0,6.354-.234,9.317-.367Q92.509,57.6,3.059-.2Z" transform="translate(3.507 102.837)" fill="#2980b5"/>
            <path id="Path_23246" data-name="Path 23246" d="M177.619,117.218c.291-2.191,1.453-4.908.674-6.856-.7-1.759-3.5-2.715-5.424-3.958Q91.031,53.5,9.21.579C7.546-.5,6.225-.847,4.383.254A40.589,40.589,0,0,1-.18,2.32Z" transform="translate(225.7 -1.944)" fill="#2980b5"/>
            <path id="Path_23247" data-name="Path 23247" d="M-.194,2.5,167.166,110.65c.105-2.383.24-4.848.29-7.311.006-.306-.388-.648-.674-.9a10.424,10.424,0,0,0-1.182-.782Q87.245,51.027,8.909.364A3.307,3.307,0,0,0,4.962.1C3.33,1.039,1.538,1.707-.194,2.5Z" transform="translate(237.583 -7.438)" fill="#2980b5"/>
            <path id="Path_23248" data-name="Path 23248" d="M2.483-.163-.433,5.577c.7.483,1.289.913,1.9,1.309q77.736,50.242,155.458,100.5a4.319,4.319,0,0,0,3.648.721c2.56-.608,5.157-1.037,7.221-1.44Z" transform="translate(-1.714 112.251)" fill="#2980b5"/>
            <path id="Path_23249" data-name="Path 23249" d="M1.94-.127Q.788,2.836-.471,6.066c.63.43,1.169.818,1.73,1.181Q74.039,54.283,146.8,101.34a3.393,3.393,0,0,0,3.576.454c2.038-.837,4.212-1.344,6.238-1.964Z" transform="translate(-5.979 122.208)" fill="#2980b5"/>
            <path id="Path_23250" data-name="Path 23250" d="M154.7,101.946c1.439-5.416-1.53-8.685-6.5-11.869Q78.613,45.53,9.388.483A4.389,4.389,0,0,0,4.8.006C3.074.747,1.284,1.343-.146,1.879Q77.366,51.967,154.7,101.946Z" transform="translate(250.118 -12.374)" fill="#2980b5"/>
            <path id="Path_23251" data-name="Path 23251" d="M146.356,93.816,1.068-.07C.605,1.666.017,3.69-.44,5.739A1.846,1.846,0,0,0,.11,7.028a4.992,4.992,0,0,0,1.165.792q68.379,44.189,136.738,88.4c1.359.879,2.373,1.122,3.845.069A39.509,39.509,0,0,1,146.356,93.816Z" transform="translate(-8.986 132.915)" fill="#2980b5"/>
            <path id="Path_23252" data-name="Path 23252" d="M-.1,1.326,140.979,92.5c-.532-3.045-1-5.937-1.586-8.8-.085-.411-.723-.741-1.167-1.027Q74.279,41.326,10.292.04A4.364,4.364,0,0,0,7.438-.465C4.983-.03,2.568.671-.1,1.326Z" transform="translate(262.909 -16.093)" fill="#2980b5"/>
            <path id="Path_23253" data-name="Path 23253" d="M.488-.011C.511-.066.474-.006.459.059c-1.484,6.809-1.484,6.809,4.377,10.6Q67.742,51.308,130.62,92c1.532.994,2.565,1.061,3.912-.2,1.155-1.078,2.455-2.015,3.547-2.9Z" transform="translate(-11.086 144.233)" fill="#2980b5"/>
            <path id="Path_23254" data-name="Path 23254" d="M0,0C-.049,2.218-.133,4.586-.122,6.951a2.011,2.011,0,0,0,.67,1.112,5.227,5.227,0,0,0,1.007.673Q61.479,47.46,121.384,86.213c1.3.84,2.294,1.109,3.689.131,1.477-1.033,3.1-1.866,4.435-2.652Z" transform="translate(-12.156 156.551)" fill="#2980b5"/>
            <path id="Path_23255" data-name="Path 23255" d="M121.706,78.832c-.873-2.669-1.787-5.638-2.845-8.554a3.883,3.883,0,0,0-1.521-1.747Q64.394,34.262,11.387.072a4.817,4.817,0,0,0-2.68-.637C5.732-.405,2.759-.074-.013.174Q60.892,39.531,121.706,78.832Z" transform="translate(278.942 -18.277)" fill="#2980b5"/>
            <path id="Path_23256" data-name="Path 23256" d="M-.016.2C.03-.122,0,.008-.006.138c-.349,5.594,2.2,9.033,7.141,12.173,34.13,21.678,67.994,43.728,101.912,65.7a3.634,3.634,0,0,0,4,.352c1.693-.814,3.484-1.428,4.838-1.971Z" transform="translate(-12.005 170)" fill="#2980b5"/>
            <path id="Path_23257" data-name="Path 23257" d="M0,0C.869,2.986,1.677,5.959,2.63,8.885c.177.546.872.976,1.421,1.333Q48.319,38.851,92.628,67.427a4.226,4.226,0,0,0,2.654.527c2.6-.373,5.18-.961,7.642-1.441Z" transform="translate(-9.858 184.486)" fill="#2980b5"/>
            <path id="Path_23258" data-name="Path 23258" d="M97.263,62.855C95.2,59,93.2,55.208,91.119,51.465a4.458,4.458,0,0,0-1.546-1.246Q52.362,26.157,15.122,2.138a7.659,7.659,0,0,0-3.216-1.115C7.938.594,3.945.326,0,0,32.417,20.949,64.738,41.835,97.263,62.855Z" transform="translate(297.336 -19.254)" fill="#2980b5"/>
            <path id="Path_23259" data-name="Path 23259" d="M0,0C1.8,3.564,3.516,7.057,5.341,10.494A5.251,5.251,0,0,0,7.123,12.3q30.289,19.626,60.616,39.2c.341.22.677.584,1.044.608a121.9,121.9,0,0,0,12.383.338Q40.684,26.292,0,0Z" transform="translate(-4.672 200.929)" fill="#2980b5"/>
            <path id="Path_23260" data-name="Path 23260" d="M57.432,37.114C43.06,18.706,23.541,6.193,0,0Z" transform="translate(323.796 -15.619)" fill="#2980b5"/>
            <path id="Path_23261" data-name="Path 23261" d="M44.36,28.666Q22.181,14.331,0,0C11.106,14.594,26.091,23.9,44.36,28.666Z" transform="translate(7.884 221.954)" fill="#2980b5"/>
          </g>
        </g>
        <path id="Path_23262" data-name="Path 23262" d="M-12506.641,1086.561H-13883c0,198.833,7.521,675.542,7.521,675.542s146.166,121.391,528.6,75.984c260.985-28.5,519.116-202.359,838.236-89.465C-12508.641,1501.572-12506.641,1086.561-12506.641,1086.561Z" transform="translate(13947.641 -1086.561)" fill="url(#linear-gradient-2)"/>
      </g>
      <g id="Mask_Group_78" data-name="Mask Group 78" transform="translate(1439 0)" clip-path="url(#clip-path-2)">
        <path id="Path_23263" data-name="Path 23263" d="M0,130.849C163.767,172.7,522.1,181.806,796.553,167.7c386.7-19.876,1043.718-171.472,1510.5-67.53,417.1,92.877,739.594,55.811,891.854,68.08,198.66,16,153.254,64.419,422.963,87.478,280.373,23.971,784.846-34.69,992.626-42.153,208.444-7.486,422.356,4.635,518.531,43.456V0H0Z" transform="translate(-1611.473 -60.85)" fill="#fff"/>
      </g>
    </g>
  </g>
</svg>
